<?xml version="1.0" encoding="UTF-8" standalone="no"?>
<svg
   width="32"
   height="32"
   viewBox="0 0 32 32"
   version="1.1"
   id="svg1"
   sodipodi:docname="icon-split-task.svg"
   inkscape:version="1.4.2 (unknown)"
   xmlns:inkscape="http://www.inkscape.org/namespaces/inkscape"
   xmlns:sodipodi="http://sodipodi.sourceforge.net/DTD/sodipodi-0.dtd"
   xmlns="http://www.w3.org/2000/svg"
   xmlns:svg="http://www.w3.org/2000/svg">
  <defs
     id="defs1" />
  <sodipodi:namedview
     id="namedview1"
     pagecolor="#ffffff"
     bordercolor="#000000"
     borderopacity="0.25"
     inkscape:showpageshadow="2"
     inkscape:pageopacity="0.0"
     inkscape:pagecheckerboard="0"
     inkscape:deskcolor="#d1d1d1"
     inkscape:zoom="25.125"
     inkscape:cx="16"
     inkscape:cy="16"
     inkscape:window-width="1671"
     inkscape:window-height="1055"
     inkscape:window-x="0"
     inkscape:window-y="0"
     inkscape:window-maximized="1"
     inkscape:current-layer="svg1" />
  <path
     fill="currentColor"
     d="m 19.980101,14.577116 h 7.999975 c 1.103017,0 2.000012,-0.896995 2.000012,-1.999974 V 4.5771288 c 0,-1.1019969 -0.896995,-2.0000126 -2.000012,-2.0000126 h -7.999975 c -1.103017,0 -2.000013,0.8980157 -2.000013,2.0000126 V 5.5771162 H 8.9800876 c -1.1030173,0 -2.0000126,0.8980158 -2.0000126,2.0000126 v 3.0000002 h -3 c -1.1029796,0 -1.9999749,0.898016 -1.9999749,2.000013 v 7.999974 c 0,1.103017 0.8969953,2.000013 1.9999749,2.000013 h 3 v 3 c 0,1.103017 0.8969953,2.000012 2.0000126,2.000012 h 9.0000004 v 0.999988 c 0,1.103017 0.896996,2.000012 2.000013,2.000012 h 7.999975 c 1.103017,0 2.000012,-0.896995 2.000012,-2.000012 v -8.000013 c 0,-1.101997 -0.896995,-1.999975 -2.000012,-1.999975 h -7.999975 c -1.103017,0 -2.000013,0.897978 -2.000013,1.999975 v 5.000013 H 8.9800876 v -3 h 3.0000004 c 1.103017,0 2.000013,-0.896996 2.000013,-2.000013 v -7.999974 c 0,-1.101997 -0.896996,-2.000013 -2.000013,-2.000013 H 8.9800876 V 7.5771288 h 9.0000004 v 5.0000132 c 0,1.102979 0.896996,1.999974 2.000013,1.999974 m -9.448026,-1.999974 -6.552,6.551999 v -6.551999 z m -5.1719811,7.999974 6.6199941,-6.619993 9.82e-4,6.619993 z"
     id="path1"
     style="stroke-width:0.999999"
     sodipodi:nodetypes="csssssscsscsssscsscsssssssscccsssscccsccccccccc" />
  <rect
     style="fill:#ffffff;fill-opacity:1;stroke-width:0.999999"
     id="rect1-7"
     width="8.4840927"
     height="8.6074944"
     x="19.721775"
     y="4.2281036" />
  <rect
     style="fill:#ffffff;fill-opacity:1;stroke-width:0.999999"
     id="rect1"
     width="8.4840927"
     height="8.6074944"
     x="19.772179"
     y="20.295795" />
  <path
     fill="currentColor"
     d="m 28.537783,3.0537146 h -8.837934 a 0.88379219,0.90560732 0 0 0 -0.883805,0.9056126 v 9.0560888 a 0.88379219,0.90560732 0 0 0 0.883805,0.905574 h 8.837934 A 0.88379219,0.90560732 0 0 0 29.42155,13.015416 V 3.9593272 A 0.88379219,0.90560732 0 0 0 28.537783,3.0537146 M 19.699849,13.015416 V 3.9593272 h 8.837934 v 9.0560888 z"
     id="path1-0"
     style="stroke-width:0.447315" />
  <path
     fill="currentColor"
     d="m 22.848573,11.28322 -2.630211,-2.5859904 0.836372,-0.802885 1.793839,1.7465575 3.897941,-3.8320253 0.836409,0.8237481 z"
     id="path2"
     style="stroke-width:0.523695" />
</svg>
